<?xml version="1.0" encoding="UTF-8" standalone="no"?>
<!-- Created with Inkscape (http://www.inkscape.org/) -->

<svg
   xmlns:dc="http://purl.org/dc/elements/1.1/"
   xmlns:cc="http://creativecommons.org/ns#"
   xmlns:rdf="http://www.w3.org/1999/02/22-rdf-syntax-ns#"
   xmlns:svg="http://www.w3.org/2000/svg"
   xmlns="http://www.w3.org/2000/svg"
   xmlns:sodipodi="http://sodipodi.sourceforge.net/DTD/sodipodi-0.dtd"
   xmlns:inkscape="http://www.inkscape.org/namespaces/inkscape"
   width="9999"
   height="9999"
   id="svg2"
   version="1.1"
   inkscape:version="0.48.4 r9939"
   sodipodi:docname="drawing.svg">
  <defs
     id="defs4" />
  <sodipodi:namedview
     id="base"
     pagecolor="#ffffff"
     bordercolor="#666666"
     borderopacity="1.0"
     inkscape:pageopacity="0.0"
     inkscape:pageshadow="2"
     inkscape:zoom="0.31897504"
     inkscape:cx="1524.7136"
     inkscape:cy="1228.0932"
     inkscape:document-units="px"
     inkscape:current-layer="layer1"
     showgrid="false"
     inkscape:window-width="1918"
     inkscape:window-height="1060"
     inkscape:window-x="0"
     inkscape:window-y="18"
     inkscape:window-maximized="0"
     inkscape:snap-bbox="true"
     inkscape:bbox-nodes="true"
     inkscape:snap-global="false" />
  <metadata
     id="metadata7">
    <rdf:RDF>
      <cc:Work
         rdf:about="">
        <dc:format>image/svg+xml</dc:format>
        <dc:type
           rdf:resource="http://purl.org/dc/dcmitype/StillImage" />
        <dc:title />
      </cc:Work>
    </rdf:RDF>
  </metadata>
  <g
     inkscape:label="Layer 1"
     inkscape:groupmode="layer"
     id="layer1"
     transform="translate(0,8946.6378)">
    <rect
       style="fill:#000000;fill-rule:evenodd;stroke:none"
       id="rect3753"
       width="497.33017"
       height="56.568531"
       x="0"
       y="995.79364" />
    <rect
       style="fill:#000000;stroke:none"
       id="rect3796"
       width="24.243662"
       height="139.40105"
       x="134.71944"
       y="863.57452" />
    <rect
       style="fill:#ff0000;stroke:none"
       id="rect3078"
       width="69"
       height="2695.3311"
       x="-65.396072"
       y="-1642.9689" />
    <rect
       style="fill:#ff0000;stroke:none"
       id="rect3082"
       width="452.57297"
       height="40"
       x="287.95209"
       y="698.83942" />
    <rect
       style="fill:#ff0000;stroke:none"
       id="rect3084"
       width="71.428574"
       height="32.857143"
       x="850.53088"
       y="563.96521" />
    <rect
       style="fill:#ff0000;stroke:none"
       id="rect3086"
       width="60"
       height="40"
       x="707.776"
       y="363.3913" />
    <rect
       style="fill:#ff0000;stroke:none"
       id="rect3090"
       width="161.42857"
       height="32.857143"
       x="287.69"
       y="215.11514" />
    <rect
       style="fill:#000000;stroke:none"
       id="rect3143"
       width="172.42728"
       height="31.350414"
       x="-43.890583"
       y="9080.4326"
       transform="translate(0,-8946.6378)" />
    <rect
       style="fill:#000000;stroke:none"
       id="rect3145"
       width="14.468922"
       height="28.215374"
       x="36.794548"
       y="-7.847209" />
    <rect
       style="fill:#000000;stroke:none"
       id="rect3147"
       width="31.350414"
       height="219.45291"
       x="285.28879"
       y="8619.582"
       transform="translate(0,-8946.6378)" />
    <rect
       style="fill:#000000;stroke:none"
       id="rect3147-0"
       width="31.350414"
       height="219.45291"
       x="361.18234"
       y="-417.40369" />
    <rect
       style="fill:#000000;stroke:none"
       id="rect3147-6"
       width="31.350414"
       height="219.45291"
       x="442.28604"
       y="-480.10452" />
    <rect
       style="fill:#000000;stroke:none"
       id="rect3147-5"
       width="31.350414"
       height="219.45291"
       x="529.84998"
       y="-529.1568" />
    <rect
       style="fill:#000000;stroke:none"
       id="rect3147-60"
       width="34.485458"
       height="219.45291"
       x="-633.30634"
       y="-579.31744"
       transform="scale(-1,1)" />
    <rect
       style="fill:#000000;stroke:none"
       id="rect3147-9"
       width="31.350414"
       height="219.45291"
       x="692.97565"
       y="-596.2912" />
    <rect
       style="fill:#000000;stroke:none"
       id="rect3147-4"
       width="31.350414"
       height="219.45291"
       x="783.4845"
       y="-327.59589" />
    <rect
       style="fill:#000000;stroke:none"
       id="rect3147-3"
       width="31.350414"
       height="219.45291"
       x="848.02869"
       y="-458.72781" />
    <rect
       style="fill:#000000;stroke:none"
       id="rect3147-8"
       width="31.350414"
       height="219.45291"
       x="927.97229"
       y="-532.40131" />
    <rect
       style="fill:#000000;stroke:none"
       id="rect3147-58"
       width="31.350414"
       height="219.45291"
       x="1000.0782"
       y="-464.99789" />
    <rect
       style="fill:#000000;stroke:none"
       id="rect3147-37"
       width="31.350414"
       height="219.45291"
       x="1081.5892"
       y="-400.72955" />
    <rect
       style="fill:#000000;stroke:none"
       id="rect3147-08"
       width="31.350414"
       height="219.45291"
       x="1186.9148"
       y="-326.48553" />
    <rect
       style="fill:#000000;stroke:none"
       id="rect3147-40"
       width="31.350414"
       height="219.45291"
       x="1280.113"
       y="-322.81262" />
    <rect
       style="fill:#000000;stroke:none"
       id="rect3147-93"
       width="31.350414"
       height="219.45291"
       x="1385.7209"
       y="-321.16632" />
    <rect
       style="fill:#000000;stroke:none"
       id="rect3147-2"
       width="31.350414"
       height="219.45291"
       x="1623.9515"
       y="-317.65094" />
    <rect
       style="fill:#ff0000;stroke:none"
       id="rect3086-1"
       width="60"
       height="40"
       x="1042.9357"
       y="265.34625" />
    <rect
       style="fill:#ff0000;stroke:none"
       id="rect3086-6"
       width="60"
       height="40"
       x="838.98914"
       y="83.567894" />
    <rect
       style="fill:#000000;stroke:none"
       id="rect3145-0"
       width="11.143708"
       height="22.673351"
       x="195.60356"
       y="-149.95517"
       inkscape:transform-center-x="-0.97570105" />
    <rect
       style="fill:#000000;stroke:none"
       id="rect3145-0-5"
       width="11.143708"
       height="22.673351"
       x="44.306351"
       y="-271.32547"
       inkscape:transform-center-x="-0.97570105" />
    <rect
       style="fill:#000000;stroke:none"
       id="rect3145-0-54"
       width="11.143708"
       height="22.673351"
       x="191.72415"
       y="-364.43146"
       inkscape:transform-center-x="-0.97570105" />
    <rect
       style="fill:#000000;stroke:none"
       id="rect3147-59-0"
       width="31.350414"
       height="219.45291"
       x="1972.8026"
       y="-316.51184" />
    <rect
       style="fill:#000000;stroke:none"
       id="rect3147-59-3"
       width="31.350414"
       height="219.45291"
       x="2434.5942"
       y="-322.40158" />
    <rect
       style="fill:#000000;fill-rule:evenodd;stroke:none"
       id="rect3753-3"
       width="497.33017"
       height="56.568531"
       x="629.99829"
       y="995.79364" />
    <rect
       style="fill:#000000;stroke:none"
       id="rect3408"
       width="136.91351"
       height="19.289524"
       x="1517.9906"
       y="351.70334" />
    <rect
       style="fill:#000000;stroke:none"
       id="rect3408-6"
       width="241.43056"
       height="26.078764"
       x="-351.70334"
       y="1517.9906"
       transform="matrix(0,-1,1,0,0,0)" />
    <rect
       style="fill:#000000;stroke:none"
       id="rect3408-6-8-6"
       width="18.197397"
       height="111.39561"
       x="222.5274"
       y="-1654.9043"
       transform="matrix(0,1,-1,0,0,0)" />
    <rect
       style="fill:#000000;stroke:none"
       id="rect3408-6-8-7"
       width="110.97859"
       height="26.078764"
       x="-222.5274"
       y="1654.9043"
       transform="matrix(0,-1,1,0,0,0)" />
    <rect
       style="fill:#000000;stroke:none"
       id="rect3408-6-8-0"
       width="112.91474"
       height="26.078764"
       x="-353.63953"
       y="1654.9043"
       transform="matrix(0,-1,1,0,0,0)" />
    <rect
       style="fill:#000000;stroke:none"
       id="rect3408-6-5"
       width="238.45184"
       height="26.078764"
       x="-352.54962"
       y="1741.4026"
       transform="matrix(0,-1,1,0,0,0)" />
    <rect
       style="fill:#000000;stroke:none"
       id="rect3408-6-5-67"
       width="237.81062"
       height="26.078764"
       x="-351.90845"
       y="1910.0857"
       transform="matrix(0,-1,1,0,0,0)" />
    <rect
       style="fill:#000000;stroke:none"
       id="rect3408-6-5-67-4"
       width="274.42398"
       height="26.078764"
       x="-372.42496"
       y="1974.8879"
       transform="matrix(0,-1,1,0,0,0)" />
    <rect
       style="fill:#000000;stroke:none"
       id="rect3408-6-5-67-4-7"
       width="18.702482"
       height="26.078764"
       x="-140.15898"
       y="1999.6382"
       transform="matrix(0,-1,1,0,0,0)" />
    <rect
       style="fill:#000000;stroke:none"
       id="rect3408-6-5-67-4-7-1"
       width="49.446335"
       height="26.078764"
       x="-189.60532"
       y="2025.7168"
       transform="matrix(0,-1,1,0,0,0)" />
    <rect
       style="fill:#000000;stroke:none"
       id="rect3408-6-5-67-4-7-6"
       width="49.041813"
       height="26.078764"
       x="-336.73068"
       y="2103.9529"
       transform="matrix(0,-1,1,0,0,0)" />
    <rect
       style="fill:#000000;stroke:none"
       id="rect3408-6-5-67-4-7-3"
       width="18.702482"
       height="26.078764"
       x="-355.4332"
       y="2130.0317"
       transform="matrix(0,-1,1,0,0,0)" />
    <rect
       style="fill:#000000;stroke:none"
       id="rect3408-6-5-67-4-7-0"
       width="276.38452"
       height="26.078764"
       x="-375.65942"
       y="2156.2827"
       transform="matrix(0,-1,1,0,0,0)" />
    <rect
       style="fill:#000000;stroke:none"
       id="rect3408-6-5-67-4-7-6-8"
       width="49.041813"
       height="26.078764"
       x="-287.68893"
       y="2077.8743"
       transform="matrix(0,-1,1,0,0,0)" />
    <rect
       style="fill:#000000;stroke:none"
       id="rect3408-6-5-67-4-7-6-9"
       width="49.041813"
       height="26.078764"
       x="-238.64716"
       y="2051.7957"
       transform="matrix(0,-1,1,0,0,0)" />
    <rect
       style="fill:#000000;stroke:none"
       id="rect3408-6-5-2"
       width="96.133156"
       height="26.426832"
       x="2420.8076"
       y="96.939636" />
    <rect
       style="fill:#000000;stroke:none"
       id="rect3408-6-5-2-3"
       width="96.133156"
       height="26.426832"
       x="2420.8076"
       y="219.49968" />
    <rect
       style="fill:#000000;stroke:none"
       id="rect3408-6-5-2-3-5"
       width="96.133156"
       height="26.426832"
       x="2420.8076"
       y="342.05966" />
    <rect
       style="fill:#000000;stroke:none"
       id="rect3408-6-5-2-3-5-9"
       width="96.133156"
       height="26.426832"
       x="-342.05966"
       y="2394.3809"
       transform="matrix(0,-1,1,0,0,0)" />
    <rect
       style="fill:#000000;stroke:none"
       id="rect3408-6-5-2-3-5-9-5"
       width="96.133156"
       height="26.426832"
       x="-219.49968"
       y="2516.9409"
       transform="matrix(0,-1,1,0,0,0)" />
    <rect
       style="fill:#000000;stroke:none"
       id="rect3408-6-5-2-3-5-2"
       width="96.133156"
       height="26.426832"
       x="2599.2607"
       y="99.156433" />
    <rect
       style="fill:#000000;stroke:none"
       id="rect3408-6-5-2-3-5-9-5-3"
       width="96.133156"
       height="26.426832"
       x="-221.71648"
       y="2572.834"
       transform="matrix(0,-1,1,0,0,0)" />
    <rect
       style="fill:#000000;stroke:none"
       id="rect3408-6-5-2-3-5-3-9"
       width="96.133156"
       height="26.426832"
       x="2599.2607"
       y="344.27646" />
    <rect
       style="fill:#000000;stroke:none"
       id="rect3408-6-5-2-3-5-9-5-3-7"
       width="96.133156"
       height="26.426832"
       x="-344.27646"
       y="2572.834"
       transform="matrix(0,-1,1,0,0,0)" />
    <rect
       style="fill:#000000;stroke:none"
       id="rect3408-6-5-2-3-5-9-5-3-7-1"
       width="96.133156"
       height="26.426832"
       x="-344.27646"
       y="2695.3938"
       transform="matrix(0,-1,1,0,0,0)" />
    <rect
       style="fill:#000000;stroke:none"
       id="rect3408-6-5-2-3-5-9-5-3-7-1-0"
       width="96.133156"
       height="26.426832"
       x="-221.71648"
       y="2695.3938"
       transform="matrix(0,-1,1,0,0,0)" />
    <rect
       style="fill:#000000;stroke:none"
       id="rect3408-6-5-2-3-5-9-5-3-7-1-3"
       width="96.133156"
       height="26.426832"
       x="-339.57449"
       y="2814.7036"
       transform="matrix(0,-1,1,0,0,0)" />
    <rect
       style="fill:#000000;stroke:none"
       id="rect3408-6-5-2-3-5-9-5-3-7-1-0-8"
       width="96.133156"
       height="26.426832"
       x="-217.01396"
       y="2814.7036"
       transform="matrix(0,-1,1,0,0,0)" />
    <rect
       style="fill:#000000;stroke:none"
       id="rect3408-6-5-2-3-5-9-5-3-7-1-3-6"
       width="96.133156"
       height="26.426832"
       x="-339.57394"
       y="3014.6768"
       transform="matrix(0,-1,1,0,0,0)" />
    <rect
       style="fill:#000000;stroke:none"
       id="rect3408-6-5-2-3-5-9-5-3-7-1-0-8-1"
       width="96.133156"
       height="26.426832"
       x="-217.01341"
       y="3014.6768"
       transform="matrix(0,-1,1,0,0,0)" />
    <rect
       style="fill:#000000;stroke:none"
       id="rect3408-6-5-2-3-5-2-8"
       width="96.133156"
       height="26.426832"
       x="2918.5437"
       y="217.01396" />
    <rect
       style="fill:#000000;stroke:none"
       id="rect3408-6-5-2-3-5-9-5-3-7-1-0-8-1-1"
       width="96.133156"
       height="26.426832"
       x="-217.01396"
       y="2892.1169"
       transform="matrix(0,-1,1,0,0,0)" />
    <rect
       style="fill:#000000;stroke:none"
       id="rect3114"
       width="1680.984"
       height="32.917934"
       x="1481.1002"
       y="608.14764" />
    <rect
       style="fill:#000000;stroke:none"
       id="rect3408-4"
       width="143.47635"
       height="19.289524"
       x="1766.6091"
       y="351.90845" />
    <rect
       style="fill:#000000;stroke:none"
       id="rect3408-2"
       width="136.91351"
       height="25.642113"
       x="1517.9908"
       y="85.906715" />
    <rect
       style="fill:#000000;stroke:none"
       id="rect3408-8"
       width="141.28874"
       height="19.289524"
       x="1767.4812"
       y="94.808266" />
  </g>
</svg>
